<?xml version="1.0" encoding="utf-8"?>
<!-- Generator: Adobe Illustrator 16.0.0, SVG Export Plug-In . SVG Version: 6.00 Build 0)  -->
<!DOCTYPE svg PUBLIC "-//W3C//DTD SVG 1.1//EN" "http://www.w3.org/Graphics/SVG/1.1/DTD/svg11.dtd">
<svg version="1.1" id="Layer_1" xmlns="http://www.w3.org/2000/svg" xmlns:xlink="http://www.w3.org/1999/xlink" x="0px" y="0px"
	 width="100px" height="100px" viewBox="0 0 100 100" enable-background="new 0 0 100 100" xml:space="preserve">
<g>
	<g>
		<path fill="#5EE2DC" d="M93.713,67.47c-0.314-0.315-0.717-0.473-1.205-0.473H42.156c-0.489,0-0.891,0.157-1.206,0.473
			c-0.314,0.314-0.471,0.716-0.471,1.205v3.357c0,0.489,0.157,0.892,0.471,1.206c0.315,0.314,0.717,0.472,1.206,0.472h50.352
			c0.488,0,0.891-0.157,1.205-0.472s0.471-0.717,0.471-1.206v-3.357C94.186,68.186,94.029,67.784,93.713,67.47z"/>
		<path fill="#5EE2DC" d="M13.152,17.852c-0.35-0.35-0.752-0.524-1.207-0.524c-0.454,0-0.856,0.175-1.206,0.524l-2.623,2.623
			c-0.35,0.35-0.524,0.751-0.524,1.206s0.174,0.856,0.524,1.206L28.73,43.5L8.117,64.112c-0.35,0.35-0.524,0.752-0.524,1.206
			c0,0.455,0.174,0.856,0.524,1.206l2.623,2.622c0.35,0.351,0.751,0.524,1.206,0.524s0.857-0.175,1.207-0.524l24.441-24.44
			c0.35-0.35,0.524-0.753,0.524-1.207c0-0.455-0.174-0.857-0.524-1.206L13.152,17.852z"/>
	</g>
</g>
</svg>
