<?xml version="1.0" encoding="utf-8"?>
<!-- Generator: Adobe Illustrator 16.0.0, SVG Export Plug-In . SVG Version: 6.00 Build 0)  -->
<!DOCTYPE svg PUBLIC "-//W3C//DTD SVG 1.1//EN" "http://www.w3.org/Graphics/SVG/1.1/DTD/svg11.dtd">
<svg version="1.1" xmlns="http://www.w3.org/2000/svg" xmlns:xlink="http://www.w3.org/1999/xlink" x="0px" y="0px" width="100px"
	 height="100px" viewBox="0 0 100 100" enable-background="new 0 0 100 100" xml:space="preserve">
<g id="Layer_1" display="none">
	<g display="inline">
		<path fill="#5EE2DC" d="M46.857,81.023c0.273,1.248-0.761,2.533-2.309,2.871c-1.548,0.34-3.025-0.396-3.298-1.645
			c-0.273-1.248,0.761-2.533,2.309-2.873C45.108,79.039,46.584,79.775,46.857,81.023z M56.381,81.023
			c-0.273,1.248,0.761,2.533,2.309,2.873c1.548,0.338,3.024-0.398,3.298-1.646s-0.761-2.535-2.309-2.873
			C58.131,79.037,56.654,79.775,56.381,81.023z M86.917,32.204c-1.77,3.562-4.384,6.14-7.767,7.659
			c-1.813,0.813-3.557,1.176-4.915,1.33c0.209,2.412,0.226,5.287,0.031,7.992c-0.233,3.25-0.879,7.827-2.627,11.161
			c-3.084,5.889-4.084,9.838-4.38,12.115c-0.204,1.578-0.093,2.496-0.042,2.793c0.735,1.281,3.205,6.256,0.461,11.131
			c-1.188,2.109-2.495,3.512-5.021,3.512c-0.822,0-1.696-0.141-2.803-0.318c-1.835-0.297-4.35-0.701-8.188-0.701
			c-3.839,0-6.354,0.406-8.189,0.701c-1.106,0.178-1.98,0.318-2.802,0.318c-2.526,0-3.834-1.402-5.021-3.512
			c-2.732-4.852-0.3-9.799,0.449-11.111c0-0.004,0.001-0.008,0.002-0.012l-0.012-0.008c0.005-0.006,0.011-0.016,0.017-0.023
			c0.156-0.959,0.505-5.488-4.419-14.883c-1.749-3.338-2.393-7.914-2.626-11.165c-0.193-2.7-0.177-5.572,0.031-7.981
			c-1.358-0.149-3.119-0.511-4.954-1.342c-3.358-1.52-5.957-4.096-7.726-7.656c-2.044-4.113-2.504-8.802-1.333-13.557
			c0.876-3.555,2.367-5.926,2.43-6.025l3.718-5.853l0.062,6.933c0.045,5.305,1.898,9.137,5.508,11.39
			c2.927,1.826,6.313,2.225,8.179,2.292l10.37-1.556c2.084-0.312,4.209-0.472,6.317-0.472c2.107,0,4.232,0.158,6.317,0.472
			l10.379,1.557c1.862-0.068,5.241-0.471,8.17-2.305c3.604-2.257,5.457-6.086,5.509-11.381L82.11,6.78l3.71,5.841
			c0.063,0.1,1.554,2.471,2.43,6.025C89.421,23.401,88.961,28.089,86.917,32.204z M39.906,70.512
			c0.298-0.305,0.597-0.592,0.891-0.848c-0.057-1.664-0.225-5.148-0.701-8.863c-0.347-2.701-0.799-5.051-1.33-6.965
			c-0.692,0.393-1.497,0.6-2.364,0.6c-0.887,0-1.775-0.219-2.598-0.629c0.384,1.873,0.898,3.455,1.517,4.639
			C37.695,62.971,39.233,67.021,39.906,70.512z M36.339,48.778l0.001-0.001c-0.056-0.059-0.114-0.115-0.177-0.17
			c-0.388-0.332-0.863-0.53-1.268-0.53c-0.073,0-0.318,0.008-0.418,0.126c-0.154,0.18-0.115,0.941,0.658,1.604
			c0.389,0.333,0.862,0.531,1.268,0.531c0.073,0,0.317-0.009,0.418-0.126c0.075-0.088,0.094-0.267,0.052-0.481
			c-0.062-0.317-0.245-0.645-0.51-0.929C36.355,48.795,36.347,48.786,36.339,48.778z M69.537,53.764
			c-0.848,0.438-1.767,0.674-2.686,0.674c-0.866,0-1.671-0.209-2.363-0.6c-0.531,1.912-0.984,4.262-1.33,6.963
			c-0.476,3.715-0.645,7.199-0.7,8.863c0.317,0.277,0.642,0.588,0.963,0.92c0.553-2.898,1.838-6.889,4.59-12.139
			C68.636,57.252,69.152,55.654,69.537,53.764z M66.917,48.779c-0.008,0.008-0.017,0.017-0.024,0.023
			c-0.266,0.284-0.448,0.611-0.51,0.929c-0.042,0.214-0.023,0.394,0.052,0.481c0.101,0.117,0.346,0.126,0.418,0.126
			c0.407,0,0.881-0.198,1.269-0.53c0.773-0.663,0.812-1.425,0.658-1.604c-0.102-0.117-0.346-0.126-0.419-0.126
			c-0.406,0-0.88,0.198-1.268,0.53c-0.063,0.055-0.121,0.111-0.178,0.17L66.917,48.779z M84.645,21.588
			c-0.22,0.521-0.465,1.023-0.732,1.507c-1.241,2.237-2.992,4.074-5.204,5.46c-3.847,2.409-8.172,2.872-10.409,2.934l-0.181,0.005
			l-10.742-1.611c-1.884-0.282-3.806-0.426-5.71-0.426c-1.905,0-3.825,0.144-5.709,0.426l-10.73,1.609l-0.18-0.005
			c-2.24-0.06-6.571-0.519-10.416-2.918c-2.217-1.385-3.971-3.222-5.213-5.462c-0.268-0.481-0.511-0.983-0.73-1.503
			c-0.416,3.121,0.053,6.066,1.4,8.777c3.058,6.155,8.519,6.82,10.724,6.82c0.169,0,0.33-0.004,0.477-0.012l2.557-0.142
			l-0.422,2.525c-0.217,1.296-0.347,2.973-0.382,4.762c0.567-0.232,1.193-0.354,1.856-0.354c1.395,0,2.792,0.538,3.934,1.517
			c0.146,0.125,0.286,0.257,0.42,0.394c2.354,2.25,3.964,6.974,4.916,14.427c0.686,5.365,0.754,10.117,0.757,10.316l0.015,1.176
			l-1.007,0.605c-3.444,2.07-6.884,8.086-4.703,11.959c0.802,1.426,1.032,1.426,1.45,1.426c0.494,0,1.226-0.117,2.15-0.268
			c1.861-0.301,4.673-0.752,8.841-0.752c4.166,0,6.979,0.453,8.84,0.752c0.926,0.15,1.656,0.268,2.151,0.268
			c0.418,0,0.647,0,1.449-1.426c2.235-3.969-1.3-9.865-4.781-11.959l-1.008-0.605l0.016-1.176c0.001-0.199,0.07-4.951,0.755-10.316
			c0.951-7.453,2.562-12.177,4.916-14.427c0.134-0.137,0.274-0.269,0.421-0.394c1.142-0.979,2.538-1.517,3.934-1.517
			c0.692,0,1.347,0.133,1.935,0.386c-0.034-1.799-0.164-3.486-0.382-4.79l-0.419-2.497l2.53,0.113
			c0.13,0.005,0.269,0.008,0.412,0.008c2.231,0,7.753-0.665,10.811-6.818C84.596,27.666,85.063,24.715,84.645,21.588z
			 M43.281,32.656l0.798,4.02c0.077-0.016,7.781-1.501,15.168-0.002l0.813-4.016C51.846,30.991,43.626,32.588,43.281,32.656z"/>
	</g>
</g>
<g id="Layer_2">
	<g>
		<path fill="none" stroke="#5EE2DC" stroke-width="2" stroke-miterlimit="10" d="M54,27.786c0,0,10.701,1.665,19.171,2.099
			c8.469,0.434,17.911-7.836,15.393-20.01c0,0,11.894,27.147-12.314,31.345c0,0,1.585,18.278-4.198,25.607
			c-5.782,7.329-4.338,11.895-4.478,13.294s4.618,10.636-1.539,16.093c0,0-2.938-1.68-12.034-1.96"/>
		<path fill="none" stroke="#5EE2DC" stroke-width="2" stroke-miterlimit="10" d="M54,27.786c0,0-10.702,1.665-19.171,2.099
			c-8.469,0.434-17.911-7.836-15.392-20.01c0,0-11.895,27.147,12.314,31.345c0,0-1.585,18.278,4.198,25.607
			s4.338,11.895,4.478,13.294c0.14,1.399-4.618,10.636,1.539,16.093c0,0,2.938-1.68,12.034-1.96"/>
		<path fill="none" stroke="#5EE2DC" stroke-width="2" stroke-miterlimit="10" d="M54,35.762c0,0,4.862-0.524,8.256,0.98"/>
		<path fill="none" stroke="#5EE2DC" stroke-width="2" stroke-miterlimit="10" d="M67.954,82.083c0,0-1.303-3.644-4.81-4.879
			c-2.371-0.834-1.249-14.314,1.73-22.659c0.019-0.05,0.037-0.1,0.055-0.15c1.423-3.923,3.261-6.669,5.34-6.35
			c6.42,0.984,2.482,9.212-1.854,8.232c-0.05-0.01-0.103-0.021-0.152-0.037c-4.395-1.213-2.419-1.689-2.419-1.689"/>
		<path fill="none" stroke="#5EE2DC" stroke-width="2" stroke-miterlimit="10" d="M54,35.762c0,0-4.863-0.524-8.256,0.98"/>
		<path fill="none" stroke="#5EE2DC" stroke-width="2" stroke-miterlimit="10" d="M40.046,82.083c0,0,1.302-3.644,4.809-4.879
			c2.371-0.834,1.25-14.314-1.731-22.659c-0.019-0.05-0.037-0.101-0.055-0.15c-1.422-3.923-3.26-6.669-5.339-6.35
			c-6.42,0.984-2.482,9.212,1.853,8.231c0.05-0.01,0.103-0.021,0.153-0.037c4.394-1.213,2.418-1.689,2.418-1.689"/>
		
			<ellipse transform="matrix(0.9611 0.2763 -0.2763 0.9611 26.8868 -13.2674)" fill="none" stroke="#5EE2DC" stroke-width="2" stroke-miterlimit="10" cx="60.528" cy="88.785" rx="2.091" ry="1.429"/>
		
			<ellipse transform="matrix(-0.9611 0.2763 -0.2763 -0.9611 116.9655 161.0921)" fill="none" stroke="#5EE2DC" stroke-width="2" stroke-miterlimit="10" cx="47.136" cy="88.785" rx="2.091" ry="1.429"/>
	</g>
</g>
</svg>
