<?xml version="1.0" encoding="utf-8"?>
<!-- Generator: Adobe Illustrator 16.0.0, SVG Export Plug-In . SVG Version: 6.00 Build 0)  -->
<!DOCTYPE svg PUBLIC "-//W3C//DTD SVG 1.1//EN" "http://www.w3.org/Graphics/SVG/1.1/DTD/svg11.dtd">
<svg version="1.1" id="Layer_1" xmlns="http://www.w3.org/2000/svg" xmlns:xlink="http://www.w3.org/1999/xlink" x="0px" y="0px"
	 width="100px" height="100px" viewBox="0 0 100 100" enable-background="new 0 0 100 100" xml:space="preserve">
<g>
	<path fill="#5EE2DC" d="M96.335,12.991c-0.525-0.525-1.238-0.821-1.981-0.821c-0.01,0-0.02,0-0.028,0
		c-1.979,0-3.843-0.771-5.247-2.173c-1.42-1.416-2.199-3.299-2.198-5.304c0-0.744-0.296-1.457-0.821-1.982S84.82,1.89,84.076,1.89
		H17.358c-0.744,0-1.457,0.295-1.982,0.821c-0.525,0.526-0.821,1.239-0.821,1.982c0,2.004-0.78,3.889-2.199,5.303
		c-1.405,1.402-3.268,2.173-5.247,2.173c-0.009,0-0.019-0.001-0.028,0c-0.743,0-1.456,0.295-1.981,0.821
		c-0.527,0.527-0.823,1.243-0.821,1.99c0.028,9.431,1.372,23.86,7.616,39.041C19.374,72.209,31.937,86.9,49.234,97.686
		c0.454,0.283,0.968,0.426,1.483,0.426c0.515,0,1.029-0.143,1.483-0.426C69.498,86.9,82.061,72.209,89.539,54.021
		c6.244-15.181,7.589-29.61,7.617-39.041C97.158,14.234,96.862,13.518,96.335,12.991z M50.717,91.988
		C16.863,70.055,10.455,36.956,9.922,17.472c2.402-0.526,4.609-1.727,6.394-3.507c1.805-1.801,3.02-4.036,3.547-6.47h61.709
		c0.527,2.434,1.741,4.668,3.548,6.47c1.784,1.781,3.991,2.981,6.393,3.507C90.98,36.956,84.572,70.055,50.717,91.988z"/>
	<path fill="#5EE2DC" d="M75.438,48.25c-1.355-0.746-3.061-0.252-3.806,1.104l-2.438,4.43h-7.642l-2.74-4.531
		c-0.508-0.839-1.418-1.352-2.398-1.352H45.021c-0.981,0-1.89,0.513-2.398,1.352l-2.74,4.531h-7.643l-2.437-4.43
		c-0.745-1.356-2.449-1.851-3.805-1.104c-1.356,0.745-1.852,2.45-1.105,3.806l3.235,5.881c0.492,0.895,1.433,1.451,2.455,1.451
		h10.88c0.981,0,1.89-0.514,2.398-1.352l2.74-4.529h8.233l2.74,4.529c0.508,0.838,1.417,1.352,2.398,1.352h10.879
		c1.023,0,1.963-0.557,2.457-1.451l3.234-5.881C77.289,50.701,76.794,48.997,75.438,48.25z"/>
	<polygon fill="#5EE2DC" points="50.717,82.742 56.157,63.922 45.277,63.922 	"/>
	<path fill="#5EE2DC" d="M32.89,23.379c4.01,0,7.75,2.159,9.762,5.633c0.775,1.339,2.491,1.796,3.83,1.021
		c1.339-0.775,1.796-2.491,1.021-3.83c-3.011-5.2-8.611-8.43-14.613-8.43c-6.004,0-11.605,3.231-14.615,8.434
		c-0.775,1.34-0.317,3.054,1.021,3.83c0.442,0.256,0.925,0.377,1.401,0.377c0.967,0,1.909-0.502,2.428-1.399
		C25.138,25.538,28.879,23.379,32.89,23.379z"/>
	<path fill="#5EE2DC" d="M29.416,27.613c-1.032,0-1.868,0.837-1.868,1.868c0,1.032,0.836,1.869,1.868,1.869h7.408
		c1.032,0,1.868-0.837,1.868-1.869c0-1.031-0.836-1.868-1.868-1.868H29.416z"/>
	<path fill="#5EE2DC" d="M68.546,17.774c-6.004,0-11.604,3.231-14.615,8.433c-0.774,1.339-0.317,3.055,1.022,3.828
		c0.441,0.258,0.924,0.379,1.4,0.379c0.968,0,1.91-0.502,2.43-1.4c2.012-3.477,5.753-5.636,9.763-5.636
		c4.009,0,7.751,2.159,9.763,5.633c0.775,1.338,2.489,1.797,3.83,1.022c1.338-0.776,1.796-2.491,1.02-3.83
		C80.148,21.004,74.549,17.774,68.546,17.774z"/>
	<path fill="#5EE2DC" d="M72.479,31.35c1.032,0,1.869-0.837,1.869-1.869c0-1.031-0.837-1.868-1.869-1.868h-7.407
		c-1.032,0-1.869,0.837-1.869,1.868c0,1.032,0.837,1.869,1.869,1.869H72.479z"/>
	<path fill="#5EE2DC" d="M53.594,60.588c1.031,0,1.867-0.838,1.867-1.869s-0.836-1.869-1.867-1.869h-5.752
		c-1.032,0-1.868,0.838-1.868,1.869s0.836,1.869,1.868,1.869H53.594z"/>
</g>
</svg>
