<?xml version="1.0" encoding="utf-8"?>
<!-- Generator: Adobe Illustrator 16.0.0, SVG Export Plug-In . SVG Version: 6.00 Build 0)  -->
<!DOCTYPE svg PUBLIC "-//W3C//DTD SVG 1.1//EN" "http://www.w3.org/Graphics/SVG/1.1/DTD/svg11.dtd">
<svg version="1.1" id="Layer_1" xmlns="http://www.w3.org/2000/svg" xmlns:xlink="http://www.w3.org/1999/xlink" x="0px" y="0px"
	 width="100px" height="100px" viewBox="0 0 100 100" enable-background="new 0 0 100 100" xml:space="preserve">
<g>
	<g>
		<g>
			<path fill="#5EE2DC" d="M32.244,71.678L22.052,81.869c-0.317,0.318-0.478,0.76-0.438,1.207s0.276,0.854,0.645,1.111
				c1.227,0.854,1.958,2.246,1.958,3.729c0,2.51-2.041,4.551-4.55,4.551s-4.55-2.041-4.55-4.551c0-0.416,0.076-0.852,0.24-1.369
				c0.171-0.539,0.027-1.129-0.373-1.531c-0.4-0.398-0.989-0.543-1.532-0.371c-0.515,0.164-0.949,0.238-1.368,0.238
				c-2.509,0-4.55-2.041-4.55-4.549c0-2.51,2.042-4.551,4.55-4.551c1.482,0,2.875,0.732,3.729,1.959
				c0.258,0.367,0.664,0.604,1.112,0.645c0.447,0.033,0.889-0.123,1.206-0.439l7.159-7.158c0.593-0.594,0.593-1.551,0-2.145
				c-0.593-0.594-1.552-0.594-2.145,0l-6.027,6.027c-1.374-1.225-3.162-1.922-5.034-1.922c-4.182,0-7.583,3.402-7.583,7.584
				s3.402,7.582,7.583,7.582c0,4.184,3.402,7.584,7.583,7.584c4.181,0,7.583-3.4,7.583-7.584c0-1.871-0.697-3.658-1.921-5.033
				l9.061-9.061c0.593-0.594,0.593-1.551,0-2.145S32.837,71.084,32.244,71.678z"/>
			<path fill="#5EE2DC" d="M70.031,26.046l7.917-7.916c0.316-0.317,0.478-0.759,0.438-1.206c-0.041-0.447-0.276-0.854-0.646-1.112
				c-1.228-0.853-1.958-2.246-1.958-3.729c0-2.509,2.041-4.551,4.551-4.551c2.508,0,4.549,2.042,4.549,4.551
				c0,0.415-0.075,0.852-0.24,1.369c-0.17,0.541-0.026,1.13,0.374,1.532c0.401,0.4,0.992,0.546,1.532,0.371
				c0.515-0.164,0.949-0.239,1.368-0.239c2.509,0,4.55,2.041,4.55,4.55s-2.041,4.55-4.55,4.55c-1.481,0-2.876-0.732-3.729-1.958
				c-0.258-0.368-0.664-0.604-1.111-0.645c-0.455-0.038-0.889,0.122-1.206,0.438l-7.918,7.917c-0.593,0.593-0.593,1.552,0,2.145
				c0.297,0.296,0.686,0.444,1.072,0.444c0.389,0,0.777-0.148,1.073-0.444l6.785-6.786c1.374,1.225,3.163,1.922,5.034,1.922
				c4.182,0,7.584-3.401,7.584-7.583s-3.402-7.584-7.584-7.584c0-4.181-3.401-7.583-7.583-7.583s-7.584,3.402-7.584,7.584
				c0,1.871,0.697,3.659,1.922,5.033l-6.785,6.786c-0.594,0.593-0.594,1.551,0,2.144C68.479,26.64,69.438,26.64,70.031,26.046z"/>
			<path fill="#5EE2DC" d="M12.083,27.25c1.872,0,3.66-0.697,5.034-1.922l6.786,6.786c0.296,0.296,0.684,0.444,1.072,0.444
				s0.777-0.148,1.072-0.444c0.593-0.594,0.593-1.552,0-2.145l-7.917-7.917c-0.317-0.317-0.765-0.475-1.206-0.438
				c-0.448,0.041-0.854,0.276-1.112,0.645c-0.853,1.227-2.246,1.958-3.729,1.958c-2.509,0-4.55-2.041-4.55-4.55
				s2.042-4.55,4.55-4.55c0.416,0,0.853,0.075,1.37,0.241c0.538,0.17,1.128,0.027,1.53-0.375c0.4-0.4,0.544-0.99,0.375-1.53
				c-0.165-0.518-0.241-0.954-0.241-1.369c0-2.509,2.042-4.551,4.55-4.551s4.55,2.042,4.55,4.551c0,1.483-0.731,2.877-1.958,3.729
				c-0.369,0.258-0.605,0.665-0.645,1.112s0.122,0.889,0.438,1.206l7.917,7.916c0.593,0.594,1.552,0.594,2.145,0
				c0.593-0.593,0.593-1.551,0-2.144l-6.786-6.786c1.224-1.374,1.921-3.162,1.921-5.033c0-4.182-3.402-7.584-7.583-7.584
				c-4.182,0-7.583,3.402-7.583,7.584c-4.182,0-7.583,3.401-7.583,7.583S7.901,27.25,12.083,27.25z"/>
			<path fill="#5EE2DC" d="M59.101,56.066c3.346,0,6.066-2.721,6.066-6.066c0-3.347-2.722-6.067-6.066-6.067
				c-3.347,0-6.067,2.721-6.067,6.067C53.033,53.346,55.754,56.066,59.101,56.066z M59.101,46.966c1.673,0,3.032,1.36,3.032,3.034
				c0,1.671-1.359,3.033-3.032,3.033S56.066,51.672,56.066,50C56.066,48.327,57.428,46.966,59.101,46.966z"/>
			<path fill="#5EE2DC" d="M71.233,68.199c0.741,0,1.374-0.537,1.495-1.266l1.441-8.637c2.104-2.268,3.13-4.988,3.13-8.296
				C77.3,34.947,65.053,22.7,50,22.7C34.947,22.7,22.7,34.947,22.7,50c0,3.261,1.053,6.048,3.132,8.294l1.439,8.639
				c0.121,0.729,0.753,1.266,1.496,1.266h6.066c1.224,0,1.477,1.293,1.538,1.768l1.517,9.1c0.121,0.732,0.753,1.268,1.496,1.268h9.1
				c0.837,0,1.516-0.68,1.516-1.518s-0.679-1.518-1.516-1.518h-1.517V72.75c0-0.838-0.68-1.516-1.517-1.516
				c-0.837,0-1.517,0.678-1.517,1.516v4.551h-3.265l-1.292-7.74c-0.157-1.52-1.312-4.395-4.542-4.395h-4.782l-1.306-7.834
				c-0.052-0.311-0.199-0.598-0.423-0.822c-1.743-1.74-2.589-3.869-2.589-6.51c0-13.38,10.887-24.267,24.267-24.267
				S74.267,36.62,74.267,50c0,3.515-1.477,5.4-2.589,6.509c-0.223,0.225-0.371,0.512-0.423,0.824l-1.306,7.832h-4.782
				c-3.052,0-4.299,2.822-4.529,4.301l-1.306,7.834h-3.266V72.75c0-0.838-0.68-1.516-1.517-1.516s-1.517,0.678-1.517,1.516v6.066
				c0,0.838,0.68,1.518,1.517,1.518h6.067c0.741,0,1.374-0.535,1.495-1.268l1.518-9.104c0.03-0.182,0.339-1.764,1.537-1.764H71.233
				L71.233,68.199z"/>
			<path fill="#5EE2DC" d="M46.967,65.166h6.066c0.011,0,0.02,0,0.029,0c0.838,0,1.518-0.678,1.518-1.516
				c0-0.117-0.014-0.23-0.037-0.34c-0.098-2.158-1.131-5.727-4.543-5.727c-3.599,0-4.55,3.969-4.55,6.066
				C45.45,64.488,46.129,65.166,46.967,65.166z M50,60.617c0.719,0,1.098,0.758,1.297,1.516h-2.594
				C48.902,61.375,49.281,60.617,50,60.617z"/>
			<path fill="#5EE2DC" d="M40.9,43.933c-3.346,0-6.067,2.721-6.067,6.067c0,3.345,2.721,6.066,6.067,6.066s6.067-2.721,6.067-6.066
				C46.967,46.654,44.246,43.933,40.9,43.933z M40.9,53.033c-1.673,0-3.034-1.361-3.034-3.033c0-1.674,1.361-3.034,3.034-3.034
				s3.033,1.36,3.033,3.034C43.933,51.672,42.573,53.033,40.9,53.033z"/>
			<path fill="#5EE2DC" d="M87.917,72.75c-1.871,0-3.66,0.697-5.034,1.922l-6.026-6.027c-0.594-0.594-1.553-0.594-2.146,0
				s-0.593,1.551,0,2.145l7.159,7.158c0.317,0.316,0.76,0.473,1.206,0.439c0.447-0.041,0.854-0.277,1.111-0.645
				c0.853-1.229,2.246-1.959,3.729-1.959c2.509,0,4.55,2.041,4.55,4.551c0,2.508-2.041,4.549-4.55,4.549
				c-0.415,0-0.853-0.076-1.37-0.24c-0.54-0.17-1.13-0.027-1.53,0.375c-0.4,0.4-0.544,0.99-0.374,1.529
				c0.165,0.52,0.24,0.953,0.24,1.369c0,2.51-2.041,4.551-4.549,4.551c-2.51,0-4.551-2.041-4.551-4.551
				c0-1.482,0.73-2.877,1.958-3.729c0.369-0.258,0.604-0.664,0.646-1.111c0.039-0.447-0.122-0.891-0.438-1.207L67.756,71.678
				c-0.593-0.592-1.552-0.592-2.145,0c-0.593,0.594-0.593,1.551,0,2.145l9.061,9.061c-1.225,1.375-1.922,3.162-1.922,5.033
				c0,4.184,3.402,7.584,7.584,7.584s7.583-3.4,7.583-7.584c4.182,0,7.584-3.4,7.584-7.582S92.099,72.75,87.917,72.75z"/>
		</g>
	</g>
</g>
</svg>
