<?xml version="1.0" encoding="utf-8"?>
<!-- Generator: Adobe Illustrator 16.0.0, SVG Export Plug-In . SVG Version: 6.00 Build 0)  -->
<!DOCTYPE svg PUBLIC "-//W3C//DTD SVG 1.1//EN" "http://www.w3.org/Graphics/SVG/1.1/DTD/svg11.dtd">
<svg version="1.1" id="Layer_1" xmlns="http://www.w3.org/2000/svg" xmlns:xlink="http://www.w3.org/1999/xlink" x="0px" y="0px"
	 width="100px" height="100px" viewBox="0 0 100 100" enable-background="new 0 0 100 100" xml:space="preserve">
<g>
	<path fill="#5EE2DC" d="M80.069,68.06H58.334c-1.3,0-2.352,1.051-2.352,2.352l-0.019,0.439l-11.948-0.019v-0.421
		c0-1.301-1.051-2.352-2.351-2.352H19.967c-1.3,0-2.351,1.051-2.351,2.352c0,1.3,1.051,2.351,2.351,2.351h19.785
		c0.746,1.625,2.39,2.771,4.283,2.771h11.929c1.911,0,3.556-1.146,4.282-2.771h19.805c1.299,0,2.352-1.051,2.352-2.351
		C82.422,69.11,81.369,68.06,80.069,68.06z"/>
	<path fill="#5EE2DC" d="M94.407,68.06h-4.437V25.487c0-0.077,0-0.153-0.018-0.23c-0.325-3.364-3.059-5.906-6.328-5.906H16.183
		c-3.384,0-6.137,2.752-6.137,6.136V68.06H5.63c-1.3,0-2.352,1.051-2.352,2.352v4.435c0,4.971,4.034,9.004,9.004,9.004h75.434
		c4.969,0,9.003-4.033,9.003-9.004v-4.435C96.758,69.11,95.707,68.06,94.407,68.06z M92.074,74.846c0,2.389-1.949,4.32-4.32,4.32
		H12.302c-2.39,0-4.34-1.95-4.34-4.32v-2.084h4.417c1.3,0,2.351-1.051,2.351-2.351V25.487c0-0.803,0.65-1.453,1.453-1.453h67.442
		c0.822,0,1.529,0.688,1.664,1.587v44.771c0,1.3,1.069,2.352,2.351,2.352h4.435V74.846z"/>
	<path fill="#5EE2DC" d="M60.074,58.539c0.459,0.555,1.127,0.822,1.797,0.822c0.535,0,1.07-0.191,1.51-0.555l11.699-9.921
		c0.517-0.439,0.822-1.09,0.822-1.797c0-0.688-0.306-1.338-0.822-1.777l-11.699-9.903c-0.994-0.841-2.467-0.707-3.307,0.268
		c-0.842,0.995-0.707,2.467,0.268,3.308l9.596,8.125l-9.596,8.124C59.367,56.073,59.232,57.564,60.074,58.539z"/>
	<path fill="#5EE2DC" d="M36.637,58.807c0.44,0.383,0.975,0.555,1.511,0.555c0.669,0,1.318-0.287,1.777-0.822
		c0.841-0.993,0.727-2.466-0.268-3.307l-9.577-8.144l9.577-8.125c0.994-0.841,1.108-2.312,0.268-3.307s-2.313-1.109-3.307-0.268
		l-11.699,9.902c-0.516,0.439-0.822,1.089-0.822,1.777s0.306,1.339,0.822,1.778L36.637,58.807z"/>
	<path fill="#5EE2DC" d="M44.15,61.675c0.287,0.114,0.573,0.171,0.86,0.171c0.937,0,1.816-0.554,2.18-1.471l9.92-24.795
		c0.479-1.204-0.096-2.561-1.299-3.039c-1.204-0.478-2.562,0.096-3.039,1.3L42.85,58.635C42.353,59.839,42.946,61.196,44.15,61.675z
		"/>
</g>
</svg>
