<?xml version="1.0" encoding="utf-8"?>
<!-- Generator: Adobe Illustrator 16.0.0, SVG Export Plug-In . SVG Version: 6.00 Build 0)  -->
<!DOCTYPE svg PUBLIC "-//W3C//DTD SVG 1.1//EN" "http://www.w3.org/Graphics/SVG/1.1/DTD/svg11.dtd">
<svg version="1.1" id="Layer_1" xmlns="http://www.w3.org/2000/svg" xmlns:xlink="http://www.w3.org/1999/xlink" x="0px" y="0px"
	 width="100px" height="100px" viewBox="0 0 100 100" enable-background="new 0 0 100 100" xml:space="preserve">
<g>
	<g>
		<path fill="#5EE2DC" d="M73.84,11.055c-3.701-3.511-8.555-5.298-13.666-5.029c-4.609,0.242-8.947,2.237-12.214,5.617
			c-3.266,3.379-5.116,7.782-5.207,12.398c-0.07,3.517,0.854,6.953,2.672,9.938c1.765,2.898,4.29,5.252,7.3,6.808
			c1.443,0.745,2.338,2.242,2.338,3.909v4.6c0,2.192,1.059,3.927,2.674,4.631c0.236,1.682,1.684,2.98,3.43,2.98
			c1.742,0,3.188-1.295,3.428-2.973c1.568-0.656,2.674-2.206,2.674-4.01v-5.224c0-1.669,0.902-3.17,2.352-3.922
			c6.145-3.181,9.963-9.45,9.963-16.363C79.582,19.313,77.543,14.568,73.84,11.055z M65.619,44.701v0.881h-8.907v-0.886
			c0-0.333-0.026-0.662-0.078-0.983h9.063C65.645,44.035,65.619,44.366,65.619,44.701z M65.619,49.104
			c-0.02-0.002-0.037-0.003-0.055-0.003h-8.797c-0.02,0-0.037,0.001-0.056,0.003v-1.872h8.907V49.104z M61.166,55.258
			c-0.703,0-1.314-0.403-1.615-0.989h3.229C62.479,54.854,61.869,55.258,61.166,55.258z M62.924,52.619h-3.518
			c-1.176,0-2.069-0.712-2.468-1.869h8.55C65.141,51.833,64.121,52.619,62.924,52.619L62.924,52.619z M68.861,39.314
			c-1.184,0.612-2.1,1.585-2.652,2.749H56.125c-0.55-1.163-1.465-2.134-2.643-2.742c-2.743-1.416-5.043-3.56-6.65-6.199
			c-1.654-2.717-2.495-5.846-2.431-9.048c0.084-4.199,1.769-8.207,4.744-11.285c2.976-3.079,6.923-4.896,11.115-5.116
			c0.307-0.017,0.611-0.024,0.914-0.024c4.316,0,8.383,1.616,11.531,4.603c3.371,3.199,5.229,7.52,5.229,12.165
			C77.934,30.71,74.457,36.419,68.861,39.314L68.861,39.314z"/>
		<path fill="#5EE2DC" d="M71.721,21.833h-0.383c-0.248-0.984-0.633-1.917-1.15-2.784l0.27-0.27c0.32-0.32,0.498-0.749,0.498-1.205
			c0-0.455-0.178-0.884-0.498-1.205l-1.244-1.243c-0.664-0.665-1.746-0.665-2.41,0l-0.27,0.269c-0.867-0.518-1.801-0.902-2.783-1.15
			v-0.383c0-0.939-0.766-1.704-1.705-1.704h-1.76c-0.939,0-1.703,0.765-1.703,1.704v0.383c-0.984,0.248-1.916,0.633-2.784,1.15
			l-0.269-0.269c-0.664-0.665-1.746-0.665-2.41,0l-1.244,1.243c-0.321,0.321-0.498,0.75-0.498,1.205
			c0,0.456,0.177,0.885,0.498,1.205l0.269,0.27c-0.518,0.867-0.902,1.8-1.15,2.784H50.61c-0.94,0-1.704,0.764-1.704,1.704v1.759
			c0,0.939,0.764,1.704,1.704,1.704h0.383c0.248,0.984,0.633,1.916,1.15,2.784l-0.269,0.269c-0.321,0.321-0.498,0.749-0.498,1.205
			s0.177,0.885,0.498,1.205l1.244,1.244c0.32,0.321,0.748,0.498,1.205,0.498c0.455,0,0.883-0.177,1.205-0.498l0.269-0.27
			c0.868,0.519,1.8,0.903,2.784,1.15v0.384c0,0.939,0.764,1.704,1.703,1.704h1.76c0.939,0,1.705-0.765,1.705-1.704v-0.384
			c0.982-0.247,1.916-0.632,2.783-1.15l0.27,0.27c0.32,0.321,0.748,0.498,1.205,0.498c0.455,0,0.883-0.177,1.205-0.498l1.244-1.244
			c0.32-0.32,0.498-0.749,0.498-1.205s-0.178-0.884-0.498-1.205l-0.27-0.269c0.518-0.868,0.902-1.8,1.15-2.784h0.383
			c0.939,0,1.703-0.765,1.703-1.704v-1.759C73.424,22.597,72.66,21.833,71.721,21.833L71.721,21.833z M71.775,25.296
			c0,0.028-0.027,0.055-0.055,0.055h-1.047c-0.398,0-0.74,0.284-0.812,0.676c-0.227,1.233-0.699,2.379-1.404,3.404
			c-0.227,0.327-0.188,0.77,0.096,1.051l0.736,0.738c0.012,0.01,0.016,0.022,0.016,0.038s-0.004,0.029-0.016,0.039l-1.242,1.244
			c-0.021,0.02-0.059,0.02-0.078,0l-0.738-0.738c-0.281-0.281-0.725-0.321-1.051-0.096c-1.025,0.706-2.172,1.18-3.404,1.406
			c-0.391,0.072-0.676,0.413-0.676,0.812v1.047c0,0.028-0.025,0.055-0.055,0.055h-1.76c-0.027,0-0.055-0.026-0.055-0.055v-1.047
			c0-0.398-0.283-0.739-0.676-0.812c-1.232-0.227-2.378-0.7-3.402-1.406c-0.143-0.098-0.307-0.146-0.469-0.146
			c-0.213,0-0.424,0.082-0.583,0.241l-0.737,0.738c-0.021,0.02-0.059,0.02-0.078,0l-1.244-1.244c-0.01-0.01-0.016-0.023-0.016-0.039
			s0.006-0.028,0.016-0.038l0.738-0.738c0.281-0.281,0.322-0.724,0.096-1.051c-0.707-1.025-1.18-2.171-1.407-3.404
			c-0.071-0.392-0.413-0.676-0.811-0.676H50.61c-0.028,0-0.055-0.026-0.055-0.055v-1.759c0-0.028,0.027-0.056,0.055-0.056h1.047
			c0.397,0,0.739-0.283,0.811-0.675c0.228-1.233,0.7-2.379,1.407-3.404c0.227-0.327,0.186-0.77-0.096-1.051l-0.738-0.738
			c-0.01-0.01-0.016-0.023-0.016-0.039s0.006-0.028,0.016-0.039l1.244-1.243c0.02-0.021,0.057-0.021,0.078,0l0.737,0.738
			c0.281,0.281,0.724,0.321,1.052,0.096c1.024-0.706,2.169-1.18,3.402-1.407c0.393-0.071,0.676-0.413,0.676-0.811v-1.047
			c0-0.028,0.027-0.055,0.055-0.055h1.76c0.029,0,0.055,0.026,0.055,0.055v1.047c0,0.397,0.285,0.739,0.676,0.811
			c1.232,0.228,2.379,0.701,3.404,1.407c0.326,0.226,0.77,0.186,1.051-0.096l0.738-0.738c0.02-0.021,0.057-0.021,0.078,0
			l1.242,1.243c0.012,0.011,0.016,0.023,0.016,0.039s-0.004,0.029-0.016,0.039l-0.736,0.738c-0.283,0.281-0.322,0.724-0.096,1.052
			c0.705,1.024,1.178,2.17,1.404,3.403c0.072,0.392,0.414,0.675,0.812,0.675h1.047c0.027,0,0.055,0.027,0.055,0.056V25.296
			L71.775,25.296z"/>
		<path fill="#5EE2DC" d="M61.166,17.435c-3.85,0-6.982,3.132-6.982,6.981c0,3.851,3.133,6.982,6.982,6.982s6.98-3.132,6.98-6.982
			C68.146,20.566,65.016,17.435,61.166,17.435z M61.166,29.749c-2.941,0-5.334-2.393-5.334-5.333s2.393-5.332,5.334-5.332
			c2.939,0,5.332,2.392,5.332,5.332S64.105,29.749,61.166,29.749z"/>
		<path fill="#5EE2DC" d="M61.166,20.953c-1.91,0-3.464,1.554-3.464,3.463c0,1.91,1.554,3.464,3.464,3.464s3.463-1.554,3.463-3.464
			C64.629,22.507,63.076,20.953,61.166,20.953z M61.166,26.23c-1.002,0-1.814-0.813-1.814-1.814c0-1,0.812-1.813,1.814-1.813
			c1,0,1.812,0.813,1.812,1.813C62.979,25.417,62.166,26.23,61.166,26.23z"/>
	</g>
</g>
<g>
	<g>
		<path fill="#5EE2DC" d="M31.084,79.422l4.534-0.676v4.573c0,0.745,0.596,1.341,1.34,1.341h24.876c0.744,0,1.34-0.596,1.34-1.341
			V66.51c2.613-2.518,4.574-5.644,5.699-9.081c0.229-0.704-0.148-1.461-0.854-1.691c-0.703-0.231-1.461,0.148-1.691,0.852
			c-1.057,3.181-2.924,6.078-5.4,8.352c-0.271,0.257-0.434,0.609-0.434,0.988v16.038H38.298v-4.777c0-0.393-0.176-0.758-0.46-1.016
			c-0.298-0.257-0.69-0.365-1.069-0.312l-5.969,0.894c-1.665-0.054-2.991-1.407-2.991-3.086v-7.782c0-0.744-0.595-1.339-1.34-1.339
			h-2.017c-0.623,0-1.096-0.177-1.272-0.462c-0.176-0.283-0.108-0.785,0.189-1.339l4.277-8.188c0.095-0.19,0.148-0.407,0.148-0.623
			v-3.492c0-7.62,4.467-14.631,11.41-17.852c0.663-0.312,1.34-0.596,2.03-0.826c0.704-0.243,1.069-1.001,0.839-1.705
			c-0.245-0.704-1.002-1.069-1.706-0.839c-0.785,0.271-1.557,0.582-2.288,0.934c-7.864,3.654-12.939,11.612-12.939,20.274v3.168
			L21,61.489c-0.744,1.407-0.771,2.855-0.108,3.965c0.677,1.11,1.976,1.746,3.56,1.746h0.677v6.443c0,3.181,2.585,5.766,5.766,5.766
			C30.948,79.437,31.016,79.422,31.084,79.422z"/>
	</g>
</g>
</svg>
