<?xml version="1.0" encoding="iso-8859-1"?>
<!-- Generator: Adobe Illustrator 16.0.0, SVG Export Plug-In . SVG Version: 6.00 Build 0)  -->
<!DOCTYPE svg PUBLIC "-//W3C//DTD SVG 1.1//EN" "http://www.w3.org/Graphics/SVG/1.1/DTD/svg11.dtd">
<svg xmlns="http://www.w3.org/2000/svg" xmlns:xlink="http://www.w3.org/1999/xlink" version="1.1" id="Capa_1" x="0px" y="0px" width="512px" height="512px" viewBox="0 0 683.517 683.518" style="enable-background:new 0 0 683.517 683.518;" xml:space="preserve">
<g>
	<path d="M302.211,610.55c2.245,10.258-6.254,20.833-18.984,23.619c-12.73,2.786-24.869-3.272-27.115-13.53   s6.254-20.833,18.984-23.619C287.826,594.232,299.966,600.291,302.211,610.55z M380.516,610.55   c-2.246,10.262,6.253,20.84,18.983,23.626c12.729,2.786,24.87-3.275,27.116-13.537c2.245-10.262-6.254-20.84-18.983-23.626   C394.902,594.227,382.762,600.288,380.516,610.55z M631.596,209.133c-14.551,29.296-36.042,50.482-63.856,62.978   c-14.911,6.691-29.247,9.673-40.415,10.939c1.716,19.83,1.854,43.473,0.256,65.711c-1.917,26.736-7.225,64.355-21.596,91.776   c-25.365,48.413-33.586,80.892-36.014,99.614c-1.681,12.974-0.768,20.516-0.346,22.958c6.047,10.538,26.354,51.438,3.785,91.534   c-9.757,17.333-20.509,28.874-41.28,28.874c-6.76,0-13.942-1.155-23.041-2.622c-15.091-2.436-35.766-5.764-67.33-5.764   c-31.572,0-52.247,3.335-67.337,5.764c-9.099,1.467-16.281,2.622-23.041,2.622c-20.771,0-31.524-11.541-41.28-28.874   c-22.46-39.896-2.463-80.581,3.695-91.368c0-0.027,0.007-0.062,0.014-0.097l-0.097-0.062c0.042-0.056,0.09-0.132,0.138-0.201   c1.287-7.881,4.151-45.127-36.333-122.372c-14.378-27.435-19.678-65.062-21.595-91.797c-1.591-22.204-1.453-45.812,0.256-65.628   c-11.168-1.225-25.649-4.2-40.733-11.029c-27.607-12.496-48.981-33.676-63.525-62.951c-16.807-33.828-20.591-72.374-10.96-111.475   c7.203-29.228,19.457-48.725,19.976-49.541L91.506,0l0.512,57c0.374,43.618,15.61,75.128,45.286,93.651   c24.065,15.021,51.908,18.294,67.254,18.848l85.265-12.794c17.139-2.567,34.61-3.875,51.942-3.875   c17.326,0,34.803,1.301,51.942,3.875l85.341,12.807c15.319-0.567,43.099-3.875,67.178-18.952   c29.628-18.557,44.871-50.046,45.293-93.582l0.555-56.889l30.507,48.026c0.519,0.816,12.772,20.315,19.976,49.541   C652.187,136.759,648.402,175.306,631.596,209.133z M245.057,524.113c2.449-2.497,4.906-4.856,7.327-6.953   c-0.471-13.687-1.847-42.346-5.764-72.887c-2.851-22.204-6.566-41.535-10.932-57.263c-5.688,3.217-12.309,4.933-19.436,4.933   c-7.293,0-14.592-1.799-21.359-5.176c3.155,15.396,7.383,28.41,12.475,38.132C226.873,462.119,239.521,495.421,245.057,524.113z    M215.726,345.42l0.014-0.014c-0.464-0.478-0.941-0.948-1.46-1.392c-3.19-2.733-7.092-4.366-10.427-4.366   c-0.602,0-2.615,0.069-3.439,1.038c-1.266,1.474-0.948,7.742,5.411,13.188c3.197,2.732,7.092,4.366,10.427,4.366   c0.602,0,2.609-0.076,3.439-1.038c0.616-0.721,0.775-2.193,0.429-3.958c-0.512-2.609-2.013-5.301-4.193-7.633   C215.858,345.559,215.789,345.481,215.726,345.42z M488.694,386.409c-6.968,3.604-14.522,5.542-22.078,5.542   c-7.128,0-13.741-1.717-19.437-4.934c-4.366,15.728-8.089,35.052-10.932,57.256c-3.916,30.541-5.301,59.2-5.765,72.887   c2.615,2.27,5.279,4.83,7.922,7.562c4.547-23.843,15.111-56.654,37.737-99.823C481.285,415.096,485.533,401.957,488.694,386.409z    M467.148,345.427c-0.062,0.062-0.131,0.131-0.2,0.194c-2.181,2.332-3.682,5.022-4.193,7.632c-0.346,1.757-0.188,3.238,0.429,3.958   c0.83,0.962,2.844,1.038,3.439,1.038c3.342,0,7.236-1.633,10.427-4.366c6.359-5.445,6.677-11.714,5.411-13.188   c-0.83-0.962-2.844-1.038-3.439-1.038c-3.342,0-7.236,1.632-10.427,4.366c-0.519,0.443-0.996,0.913-1.46,1.392L467.148,345.427z    M612.915,121.854c-1.807,4.283-3.819,8.414-6.021,12.385c-10.206,18.398-24.604,33.503-42.795,44.898   c-31.628,19.81-67.191,23.615-85.583,24.12l-1.488,0.042l-88.329-13.25c-15.492-2.325-31.288-3.501-46.947-3.501   c-15.665,0-31.455,1.176-46.947,3.501l-88.233,13.236l-1.481-0.042c-18.419-0.491-54.032-4.262-85.645-23.996   c-18.232-11.382-32.652-26.487-42.864-44.905c-2.2-3.965-4.2-8.089-6.006-12.358c-3.418,25.656,0.436,49.873,11.513,72.167   c25.144,50.614,70.043,56.08,88.178,56.08c1.391,0,2.712-0.028,3.923-0.097l21.02-1.162l-3.473,20.764   c-1.785,10.656-2.851,24.445-3.141,39.149c4.664-1.903,9.811-2.913,15.257-2.913c11.472,0,22.958,4.428,32.347,12.468   c1.204,1.031,2.352,2.117,3.453,3.238c19.36,18.502,32.596,57.354,40.422,118.622c5.639,44.13,6.2,83.189,6.22,84.829l0.125,9.666   l-8.282,4.981c-28.32,17.035-56.606,66.486-38.671,98.343c6.594,11.714,8.483,11.714,11.922,11.714   c4.062,0,10.074-0.969,17.678-2.193c15.305-2.47,38.429-6.193,72.693-6.193c34.264,0,57.388,3.729,72.693,6.193   c7.61,1.225,13.616,2.193,17.685,2.193c3.439,0,5.328,0,11.922-11.714c18.377-32.646-10.689-81.127-39.314-98.343   c-0.007,0-8.289-4.981-8.289-4.981l0.125-9.666c0.014-1.64,0.581-40.699,6.213-84.829c7.819-61.276,21.055-100.12,40.422-118.622   c1.1-1.121,2.249-2.207,3.453-3.238c9.389-8.04,20.875-12.468,32.347-12.468c5.695,0,11.071,1.093,15.907,3.176   c-0.284-14.793-1.349-28.666-3.141-39.384l-3.439-20.536l20.799,0.927c1.072,0.048,2.207,0.069,3.391,0.069   c18.35,0,63.745-5.466,88.89-56.066C612.513,171.818,616.36,147.56,612.915,121.854z M272.803,212.856l6.559,33.046   c0.63-0.125,63.975-12.344,124.718-0.014l6.697-33.018C343.233,199.163,275.646,212.296,272.803,212.856z" fill="#006DF0"/>
</g>
<g>
</g>
<g>
</g>
<g>
</g>
<g>
</g>
<g>
</g>
<g>
</g>
<g>
</g>
<g>
</g>
<g>
</g>
<g>
</g>
<g>
</g>
<g>
</g>
<g>
</g>
<g>
</g>
<g>
</g>
</svg>
