<?xml version="1.0" encoding="iso-8859-1"?>
<!-- Generator: Adobe Illustrator 17.1.0, SVG Export Plug-In . SVG Version: 6.00 Build 0)  -->
<!DOCTYPE svg PUBLIC "-//W3C//DTD SVG 1.1//EN" "http://www.w3.org/Graphics/SVG/1.1/DTD/svg11.dtd">
<svg xmlns="http://www.w3.org/2000/svg" xmlns:xlink="http://www.w3.org/1999/xlink" version="1.1" id="Capa_1" x="0px" y="0px" viewBox="0 0 511 511" style="enable-background:new 0 0 511 511;" xml:space="preserve" width="512px" height="512px">
<g>
	<path d="M487.5,424c-4.142,0-7.5,3.358-7.5,7.5V480h-48.5c-4.142,0-7.5,3.358-7.5,7.5s3.358,7.5,7.5,7.5h56   c4.142,0,7.5-3.358,7.5-7.5v-56C495,427.358,491.642,424,487.5,424z" fill="#006DF0"/>
	<path d="M79.504,480.002h-48.5v-48.5c0-4.142-3.358-7.5-7.5-7.5s-7.5,3.358-7.5,7.5v56c0,4.142,3.358,7.5,7.5,7.5h56   c4.142,0,7.5-3.358,7.5-7.5S83.646,480.002,79.504,480.002z" fill="#006DF0"/>
	<path d="M431.497,31h48.5v48.495c0,4.142,3.358,7.5,7.5,7.5s7.5-3.358,7.5-7.5V23.5c0-4.142-3.358-7.5-7.5-7.5h-56   c-4.142,0-7.5,3.358-7.5,7.5S427.354,31,431.497,31z" fill="#006DF0"/>
	<path d="M23.501,86.993c4.142,0,7.5-3.358,7.5-7.5V30.998h48.5c4.142,0,7.5-3.358,7.5-7.5s-3.358-7.5-7.5-7.5h-56   c-4.142,0-7.5,3.358-7.5,7.5v55.995C16.001,83.635,19.359,86.993,23.501,86.993z" fill="#006DF0"/>
	<path d="M255.5,64C149.907,64,64,149.907,64,255.5S149.907,447,255.5,447S447,361.093,447,255.5S361.093,64,255.5,64z M263,431.83   V407.5c0-4.142-3.358-7.5-7.5-7.5s-7.5,3.358-7.5,7.5v24.33C156.632,427.99,83.01,354.368,79.17,263h24.33   c4.142,0,7.5-3.358,7.5-7.5s-3.358-7.5-7.5-7.5H79.17C83.01,156.632,156.632,83.01,248,79.17v24.33c0,4.142,3.358,7.5,7.5,7.5   s7.5-3.358,7.5-7.5V79.17c91.368,3.84,164.99,77.462,168.83,168.83H407.5c-4.142,0-7.5,3.358-7.5,7.5s3.358,7.5,7.5,7.5h24.33   C427.99,354.368,354.368,427.99,263,431.83z" fill="#006DF0"/>
	<path d="M167.5,248h-32c-4.142,0-7.5,3.358-7.5,7.5s3.358,7.5,7.5,7.5h32c4.142,0,7.5-3.358,7.5-7.5S171.642,248,167.5,248z" fill="#006DF0"/>
	<path d="M311.5,248h-25.409c-2.784-11.354-11.737-20.306-23.091-23.091V199.5c0-4.142-3.358-7.5-7.5-7.5s-7.5,3.358-7.5,7.5v25.409   c-11.354,2.784-20.306,11.737-23.091,23.091H199.5c-4.142,0-7.5,3.358-7.5,7.5s3.358,7.5,7.5,7.5h25.409   c2.784,11.354,11.737,20.306,23.091,23.091V311.5c0,4.142,3.358,7.5,7.5,7.5s7.5-3.358,7.5-7.5v-25.409   c11.354-2.784,20.306-11.737,23.091-23.091H311.5c4.142,0,7.5-3.358,7.5-7.5S315.642,248,311.5,248z M255.5,272   c-9.098,0-16.5-7.402-16.5-16.5s7.402-16.5,16.5-16.5s16.5,7.402,16.5,16.5S264.598,272,255.5,272z" fill="#006DF0"/>
	<path d="M375.5,248h-32c-4.142,0-7.5,3.358-7.5,7.5s3.358,7.5,7.5,7.5h32c4.142,0,7.5-3.358,7.5-7.5S379.642,248,375.5,248z" fill="#006DF0"/>
	<path d="M503.5,248h-8.628c-1.869-61.161-26.557-118.389-70.02-161.852C381.389,42.685,324.161,17.997,263,16.128V7.5   c0-4.142-3.358-7.5-7.5-7.5S248,3.358,248,7.5v8.628c-61.161,1.869-118.389,26.557-161.852,70.02   C42.685,129.611,17.997,186.839,16.128,248H7.5c-4.142,0-7.5,3.358-7.5,7.5s3.358,7.5,7.5,7.5h8.628   c1.869,61.161,26.557,118.389,70.02,161.852c43.463,43.463,100.691,68.151,161.852,70.02v8.628c0,4.142,3.358,7.5,7.5,7.5   s7.5-3.358,7.5-7.5v-8.628c61.161-1.869,118.389-26.557,161.852-70.02c43.463-43.463,68.151-100.691,70.02-161.852h8.628   c4.142,0,7.5-3.358,7.5-7.5S507.642,248,503.5,248z M414.246,414.246c-40.63,40.629-94.092,63.753-151.246,65.617V471.5   c0-4.142-3.358-7.5-7.5-7.5s-7.5,3.358-7.5,7.5v8.363c-57.153-1.864-110.616-24.988-151.246-65.617   C56.125,373.616,33.001,320.153,31.137,263H39.5c4.142,0,7.5-3.358,7.5-7.5s-3.358-7.5-7.5-7.5h-8.363   c1.864-57.153,24.988-110.616,65.617-151.246C137.384,56.125,190.847,33.001,248,31.137V39.5c0,4.142,3.358,7.5,7.5,7.5   s7.5-3.358,7.5-7.5v-8.363c57.153,1.864,110.616,24.988,151.246,65.617c40.629,40.63,63.753,94.092,65.617,151.246H471.5   c-4.142,0-7.5,3.358-7.5,7.5s3.358,7.5,7.5,7.5h8.363C477.999,320.153,454.875,373.616,414.246,414.246z" fill="#006DF0"/>
	<path d="M255.5,336c-4.142,0-7.5,3.358-7.5,7.5v32c0,4.142,3.358,7.5,7.5,7.5s7.5-3.358,7.5-7.5v-32   C263,339.358,259.642,336,255.5,336z" fill="#006DF0"/>
	<path d="M255.5,175c4.142,0,7.5-3.358,7.5-7.5v-32c0-4.142-3.358-7.5-7.5-7.5s-7.5,3.358-7.5,7.5v32   C248,171.642,251.358,175,255.5,175z" fill="#006DF0"/>
</g>
<g>
</g>
<g>
</g>
<g>
</g>
<g>
</g>
<g>
</g>
<g>
</g>
<g>
</g>
<g>
</g>
<g>
</g>
<g>
</g>
<g>
</g>
<g>
</g>
<g>
</g>
<g>
</g>
<g>
</g>
</svg>
