<?xml version="1.0" encoding="utf-8"?>
<!-- Generator: Adobe Illustrator 18.0.0, SVG Export Plug-In . SVG Version: 6.00 Build 0)  -->
<!DOCTYPE svg PUBLIC "-//W3C//DTD SVG 1.1//EN" "http://www.w3.org/Graphics/SVG/1.1/DTD/svg11.dtd">
<svg version="1.1" id="Capa_1" xmlns="http://www.w3.org/2000/svg" xmlns:xlink="http://www.w3.org/1999/xlink" x="0px" y="0px"
	 viewBox="0 0 68.3 68.3" enable-background="new 0 0 68.3 68.3" xml:space="preserve" style="fill:#fff">
<g>
	<g>
		<g>
			<path d="M39.7,14h13.4c0.5,0,0.9-0.4,0.9-0.9c0-0.5-0.4-0.9-0.9-0.9H39.7c-0.5,0-0.9,0.4-0.9,0.9C38.7,13.6,39.1,14,39.7,14z"/>
			<path d="M51.7,10.8c0.6-3.3,3-7.8,3-7.8s-10-4.6-12.3-2.4c-0.9,0.8,1.4,4.1,0.5,5c-0.8,0.9-4.8,0-4.8,0s1.6,2.8,2.3,5.3H51.7
				L51.7,10.8z"/>
		</g>
		<path d="M53.5,15.4c-0.1,0-0.3,0-0.4,0H39.7c-0.2,0-0.5,0-0.7-0.1c-7.2,6.9-11.8,16.4-13.6,24c1.3-0.3,2.6-0.5,4.1-0.5
			c4.1,0,7.6,1.4,9.3,3.5l0-0.1l0,0.2c0.6,0.8,1,1.8,1,2.8c0,0.1,0,0.3,0,0.4h0.1v17.7c2.1,0.6,4.3,0.9,6.5,0.9
			c11.3,0,21.8-8.4,21.8-18.7C68.2,37.4,63,25.3,53.5,15.4z M52.8,52.4c-6,0-10.9-4.9-10.9-10.9c0-6,4.9-10.8,10.9-10.8
			c6,0,10.9,4.9,10.9,10.8C63.7,47.5,58.8,52.4,52.8,52.4z"/>
		<g>
			<g>
				<g enable-background="new    ">
					<g>
						<path d="M32,43.7c-0.7,0-1.2,0.1-1.5,0.4c-0.2,0.2-0.4,0.4-0.6,0.8h4.3c0-0.5-0.4-0.9-1-1.1C32.8,43.8,32.4,43.7,32,43.7"/>
						<path d="M28.2,45.4h-3.8c0,0.4,0.2,0.7,0.7,0.9c0.4,0.2,0.8,0.3,1.3,0.3c0.5,0,1-0.1,1.3-0.3C27.9,46.1,28.1,45.8,28.2,45.4"
							/>
						<path d="M29.5,39.8c-5.2,0-9.4,2.4-9.4,5.4c0,3,4.2,5.4,9.4,5.4c5.2,0,9.4-2.4,9.4-5.4C38.9,42.2,34.7,39.8,29.5,39.8"/>
					</g>
				</g>
				<path d="M29.5,51.3c-4.8,0-8.7-2-9.3-4.7c-0.1,0.2-0.1,0.5-0.1,0.7c0,3,4.2,5.4,9.4,5.4c5.2,0,9.4-2.4,9.4-5.4
					c0-0.2,0-0.5-0.1-0.7C38.2,49.3,34.3,51.3,29.5,51.3z"/>
				<path d="M29.5,53.5c-4.8,0-8.7-2-9.3-4.7c-0.1,0.2-0.1,0.5-0.1,0.7c0,3,4.2,5.4,9.4,5.4c5.2,0,9.4-2.4,9.4-5.4
					c0-0.2,0-0.5-0.1-0.7C38.2,51.5,34.3,53.5,29.5,53.5z"/>
				<path d="M29.5,55.7c-4.8,0-8.7-2-9.3-4.7c-0.1,0.2-0.1,0.5-0.1,0.7c0,3,4.2,5.4,9.4,5.4c5.2,0,9.4-2.4,9.4-5.4
					c0-0.2,0-0.5-0.1-0.7C38.2,53.6,34.3,55.7,29.5,55.7z"/>
				<path d="M29.5,57.8c-4.8,0-8.7-2-9.3-4.7c-0.1,0.2-0.1,0.5-0.1,0.7c0,3,4.2,5.4,9.4,5.4c5.2,0,9.4-2.4,9.4-5.4
					c0-0.2,0-0.5-0.1-0.7C38.2,55.8,34.3,57.8,29.5,57.8z"/>
				<path d="M29.5,60.3c-4.8,0-8.7-2-9.3-4.7c-0.1,0.2-0.1,0.5-0.1,0.7c0,3,4.2,5.4,9.4,5.4c5.2,0,9.4-2.4,9.4-5.4
					c0-0.2,0-0.5-0.1-0.7C38.2,58.3,34.3,60.3,29.5,60.3z"/>
				<path d="M29.5,62.5c-4.8,0-8.7-2-9.3-4.7c-0.1,0.2-0.1,0.5-0.1,0.7c0,3,4.2,5.4,9.4,5.4c5.2,0,9.4-2.4,9.4-5.4
					c0-0.2,0-0.5-0.1-0.7C38.2,60.5,34.3,62.5,29.5,62.5z"/>
				<path d="M29.5,64.7c-4.8,0-8.7-2-9.3-4.7c-0.1,0.2-0.1,0.5-0.1,0.7c0,3,4.2,5.4,9.4,5.4c5.2,0,9.4-2.4,9.4-5.4
					c0-0.2,0-0.5-0.1-0.7C38.2,62.6,34.3,64.7,29.5,64.7z"/>
				<path d="M29.5,66.8c-4.8,0-8.7-2-9.3-4.7c-0.1,0.2-0.1,0.5-0.1,0.7c0,3,4.2,5.4,9.4,5.4c5.2,0,9.4-2.4,9.4-5.4
					c0-0.2,0-0.5-0.1-0.7C38.2,64.8,34.3,66.8,29.5,66.8z"/>
			</g>
			<g>
				<g enable-background="new    ">
					<g>
						<path d="M12,49c-0.7,0-1.2,0.1-1.5,0.4c-0.2,0.2-0.4,0.4-0.6,0.8h4.3c0-0.5-0.4-0.9-1-1.1C12.8,49.1,12.5,49,12,49"/>
						<path d="M8.2,50.7H4.4c0,0.4,0.2,0.7,0.7,0.9c0.4,0.2,0.8,0.3,1.3,0.3c0.5,0,1-0.1,1.3-0.3C7.9,51.4,8.1,51.1,8.2,50.7"/>
						<path d="M9.5,45.1c-5.2,0-9.4,2.4-9.4,5.4c0,3,4.2,5.4,9.4,5.4c5.2,0,9.4-2.4,9.4-5.4C18.9,47.5,14.7,45.1,9.5,45.1"/>
					</g>
				</g>
				<path d="M9.5,56.6c-4.8,0-8.7-2-9.3-4.7c-0.1,0.2-0.1,0.5-0.1,0.7c0,3,4.2,5.4,9.4,5.4c5.2,0,9.4-2.4,9.4-5.4
					c0-0.2,0-0.5-0.1-0.7C18.2,54.6,14.3,56.6,9.5,56.6z"/>
				<path d="M9.5,58.8c-4.8,0-8.7-2-9.3-4.7c-0.1,0.2-0.1,0.5-0.1,0.7c0,3,4.2,5.4,9.4,5.4c5.2,0,9.4-2.4,9.4-5.4
					c0-0.2,0-0.5-0.1-0.7C18.2,56.8,14.3,58.8,9.5,58.8z"/>
			</g>
		</g>
	</g>
</g>
<g>
	<path d="M57.1,37.2c-0.1-0.1-0.1-0.1-0.2-0.1h-1.7c-0.1-0.6-0.3-1-0.6-1.5h2.4c0.1,0,0.2,0,0.2-0.1c0.1-0.1,0.1-0.1,0.1-0.2v-1
		c0-0.1,0-0.2-0.1-0.2C57,34,56.9,34,56.8,34h-8.4c-0.1,0-0.2,0-0.2,0.1c-0.1,0.1-0.1,0.1-0.1,0.2v1.3c0,0.1,0,0.2,0.1,0.2
		c0.1,0.1,0.1,0.1,0.2,0.1h1.5c1.4,0,2.3,0.4,2.7,1.1h-4.2c-0.1,0-0.2,0-0.2,0.1c-0.1,0.1-0.1,0.1-0.1,0.2v1c0,0.1,0,0.2,0.1,0.2
		c0.1,0.1,0.1,0.1,0.2,0.1h4.3c-0.1,0.6-0.5,1-1,1.3c-0.5,0.3-1.3,0.4-2.1,0.4h-1.1c-0.1,0-0.2,0-0.2,0.1c-0.1,0.1-0.1,0.1-0.1,0.2
		v1.3c0,0.1,0,0.2,0.1,0.2c1.3,1.4,3,3.3,5,5.8c0.1,0.1,0.1,0.1,0.3,0.1h2c0.1,0,0.2-0.1,0.3-0.2c0.1-0.1,0.1-0.2,0-0.3
		c-2-2.4-3.5-4.2-4.6-5.4c1.1-0.1,2.1-0.5,2.8-1.1c0.7-0.6,1.1-1.4,1.3-2.4h1.7c0.1,0,0.2,0,0.2-0.1c0.1-0.1,0.1-0.1,0.1-0.2v-1
		C57.2,37.4,57.1,37.3,57.1,37.2z"/>
</g>
<g>
	<path fill="#FFFFFF" d="M30.3,47.4c0,0,0-0.1,0-0.1l-0.1-0.9c0.3-0.1,0.5-0.2,0.7-0.4l0.1,1.2c0,0,0,0.1,0.1,0.1c0,0,0.1,0,0.1,0
		l0.5-0.1c0,0,0.1,0,0.1-0.1c0,0,0-0.1,0-0.1l-0.5-4.2c0,0,0-0.1-0.1-0.1c0,0-0.1,0-0.1,0l-0.7,0.1c0,0-0.1,0-0.1,0.1s0,0.1,0,0.1
		l0.1,0.7c0.1,0.7-0.1,1.2-0.4,1.4l-0.2-2.1c0,0,0-0.1-0.1-0.1c0,0-0.1,0-0.1,0L29.1,43c0,0-0.1,0-0.1,0.1c0,0,0,0.1,0,0.1l0.2,2.1
		c-0.3,0-0.5-0.2-0.7-0.4c-0.2-0.3-0.3-0.6-0.3-1l-0.1-0.6c0,0,0-0.1-0.1-0.1c0,0-0.1,0-0.1,0l-0.6,0.1c0,0-0.1,0-0.1,0.1
		c-0.6,0.7-1.5,1.7-2.6,2.8c0,0-0.1,0.1,0,0.1l0.1,1c0,0.1,0,0.1,0.1,0.1c0.1,0,0.1,0,0.2,0c1.1-1.1,1.9-2,2.4-2.6
		c0.1,0.6,0.4,1,0.7,1.3c0.3,0.3,0.8,0.5,1.2,0.5l0.1,0.8c0,0,0,0.1,0.1,0.1c0,0,0.1,0,0.1,0l0.5-0.1C30.2,47.4,30.2,47.4,30.3,47.4
		z"/>
</g>
<g>
	<path fill="#FFFFFF" d="M11.2,52.7c0,0,0-0.1,0-0.1l-0.2-0.8c0.3-0.1,0.5-0.3,0.7-0.5l0.3,1.1c0,0,0,0.1,0.1,0.1c0,0,0.1,0,0.1,0
		l0.5-0.2c0,0,0.1,0,0.1-0.1c0,0,0-0.1,0-0.1l-1.1-3.9c0,0,0-0.1-0.1-0.1c0,0-0.1,0-0.1,0l-0.7,0.2c0,0-0.1,0-0.1,0.1
		c0,0,0,0.1,0,0.1l0.2,0.7c0.2,0.7,0.1,1.1-0.2,1.4L10,48.7c0,0,0-0.1-0.1-0.1c0,0-0.1,0-0.1,0l-0.5,0.2c0,0-0.1,0-0.1,0.1
		c0,0,0,0.1,0,0.1l0.6,2c-0.3,0-0.6-0.1-0.8-0.3c-0.2-0.2-0.4-0.5-0.5-0.9l-0.2-0.5c0,0,0-0.1-0.1-0.1c0,0-0.1,0-0.1,0l-0.7,0.2
		c0,0-0.1,0-0.1,0.1C6.8,50.2,6,51.2,5,52.6c0,0,0,0.1,0,0.1l0.3,0.9c0,0.1,0.1,0.1,0.1,0.1c0.1,0,0.1,0,0.2-0.1
		c1-1.3,1.7-2.3,2.2-3c0.2,0.5,0.5,0.9,0.9,1.1c0.4,0.2,0.9,0.3,1.4,0.2l0.2,0.8c0,0,0,0.1,0.1,0.1c0,0,0.1,0,0.1,0l0.5-0.2
		C11.1,52.8,11.1,52.7,11.2,52.7z"/>
</g>
</svg>
